<?xml version="1.0" standalone="no"?><!DOCTYPE svg PUBLIC "-//W3C//DTD SVG 1.1//EN" "http://www.w3.org/Graphics/SVG/1.1/DTD/svg11.dtd"><svg t="1700553408628" class="icon" viewBox="0 0 1024 1024" version="1.1" xmlns="http://www.w3.org/2000/svg" p-id="12856" xmlns:xlink="http://www.w3.org/1999/xlink" width="64" height="64"><path d="M532.992 191.850667A21.333333 21.333333 0 0 1 554.666667 213.333333v597.333334a21.333333 21.333333 0 0 1-21.674667 21.333333 20.16 20.16 0 0 1-12.416-4.394667l-163.626667-121.984-17.066666-12.8H170.666667a21.333333 21.333333 0 0 1-21.333334-21.333333V352.256a21.333333 21.333333 0 0 1 21.333334-21.333333h169.258666l17.066667-12.8 163.626667-122.005334a20.309333 20.309333 0 0 1 12.416-4.394666m0-64a84.16 84.16 0 0 0-50.709334 17.066666l-163.626666 122.005334H170.666667a85.333333 85.333333 0 0 0-85.333334 85.226666v319.445334a85.333333 85.333333 0 0 0 85.333334 85.205333h147.989333l163.626667 122.005333a84.16 84.16 0 0 0 50.709333 17.066667A85.333333 85.333333 0 0 0 618.666667 810.666667V213.333333a85.333333 85.333333 0 0 0-85.674667-85.333333z" fill="#333333" p-id="12857"></path><path d="M938.837333 512a377.045333 377.045333 0 0 0-111.594666-267.050667 33.962667 33.962667 0 0 0-48.810667 1.258667 31.189333 31.189333 0 0 0 1.216 43.306667 312.832 312.832 0 0 1 0 444.949333 31.189333 31.189333 0 0 0-1.216 43.306667 33.984 33.984 0 0 0 48.832 1.258666A377.109333 377.109333 0 0 0 938.837333 512z m-248.106666-168.832a31.509333 31.509333 0 0 0 0.490666 42.666667 187.52 187.52 0 0 1 0 252.288 31.552 31.552 0 0 0-0.490666 42.666666 33.6 33.6 0 0 0 49.066666 0.896 250.005333 250.005333 0 0 0 0-339.434666 33.6 33.6 0 0 0-49.066666 0.810666z" fill="#FF9C00" p-id="12858"></path></svg>